<?xml version="1.0" encoding="UTF-8"?>
<svg width="189px" height="90px" viewBox="0 0 189 90" version="1.1" xmlns="http://www.w3.org/2000/svg" xmlns:xlink="http://www.w3.org/1999/xlink">
    <title>Group</title>
    <g id="Page-1" stroke="none" stroke-width="1" fill="none" fill-rule="evenodd">
        <g id="Group">
            <path d="M127.120354,13.8565625 C126.769896,12.9481448 126.051876,12.2301251 125.143458,11.8796667 C124.524056,11.6501163 123.869795,11.5287791 123.209271,11.5209583 C122.11075,11.4708333 121.781417,11.4602917 119,11.4602917 C116.218583,11.4602917 115.88925,11.4708333 114.790729,11.5209375 C114.130205,11.5287582 113.475944,11.6500954 112.856542,11.8796458 C111.948124,12.2301043 111.230104,12.948124 110.879646,13.8565417 C110.650095,14.4759442 110.528758,15.1302053 110.520938,15.7907292 C110.470833,16.88925 110.460292,17.21875 110.460292,20 C110.460292,22.78125 110.470854,23.11075 110.520938,24.2092708 C110.528743,24.8697961 110.650081,25.5240597 110.879646,26.1434583 C111.230104,27.051876 111.948124,27.7698957 112.856542,28.1203542 C113.475944,28.3499046 114.130205,28.4712418 114.790729,28.4790625 C115.888979,28.5290625 116.218438,28.5397083 119,28.5397083 C121.781563,28.5397083 122.111021,28.5291458 123.209271,28.4790625 C123.869795,28.4712418 124.524056,28.3499046 125.143458,28.1203542 C126.051876,27.7698957 126.769896,27.051876 127.120354,26.1434583 C127.349919,25.5240597 127.471257,24.8697961 127.479062,24.2092708 C127.529063,23.1107708 127.539708,22.7814375 127.539708,20 C127.539708,17.2185625 127.529167,16.88925 127.479063,15.7907292 C127.471239,15.1302123 127.349902,14.4759585 127.120354,13.8565625 L127.120354,13.8565625 Z M119,25.3491042 C116.045771,25.3491042 113.650896,22.9542287 113.650896,20 C113.650896,17.0457713 116.045771,14.6508958 119,14.6508958 C121.954229,14.6508958 124.349104,17.0457713 124.349104,20 C124.349104,21.4186723 123.785547,22.7792411 122.782394,23.7823939 C121.779241,24.7855468 120.418672,25.3491042 119,25.3491042 L119,25.3491042 Z M124.560417,15.6895833 C123.870061,15.6895833 123.310417,15.1299393 123.310417,14.4395833 C123.310417,13.7492274 123.870061,13.1895833 124.560417,13.1895833 C125.250773,13.1895833 125.810417,13.7492274 125.810417,14.4395833 C125.810417,15.1299393 125.250773,15.6895833 124.560417,15.6895833 Z" id="Shape" fill="#07A1C8" fill-rule="nonzero"></path>
            <circle id="Oval" fill="#07A1C8" fill-rule="nonzero" cx="119" cy="20" r="3.47227083"></circle>
            <path d="M119,0 C107.954305,0 99,8.954305 99,20 C99,31.045695 107.954305,40 119,40 C130.045695,40 139,31.045695 139,20 C139,14.6956617 136.8929,9.60856742 133.142166,5.85783387 C129.391433,2.10710031 124.304338,0 119,0 Z M129.353979,24.2947917 C129.336637,25.1589334 129.172914,26.013881 128.869771,26.8232917 C128.328742,28.2225424 127.222605,29.32868 125.823354,29.8697083 C125.013943,30.1728519 124.158996,30.3365745 123.294854,30.3539167 C122.18375,30.4047083 121.828979,30.4166667 119,30.4166667 C116.171021,30.4166667 115.81625,30.4047083 114.705167,30.3539792 C113.841025,30.336637 112.986077,30.1729144 112.176667,29.8697708 C110.777416,29.3287425 109.671278,28.2226049 109.13025,26.8233542 C108.827106,26.0139435 108.663384,25.1589959 108.646042,24.2948542 C108.595292,23.18375 108.583333,22.8289792 108.583333,20 C108.583333,17.1710208 108.595292,16.81625 108.646021,15.7051667 C108.663363,14.8410249 108.827086,13.9860773 109.130229,13.1766667 C109.671253,11.7774081 110.777391,10.6712622 112.176646,10.1302292 C112.986057,9.82708562 113.841004,9.66336296 114.705146,9.64602083 C115.81625,9.59529167 116.171021,9.58333333 119,9.58333333 C121.828979,9.58333333 122.18375,9.59529167 123.294833,9.64602083 C124.158975,9.66336296 125.013923,9.82708562 125.823333,10.1302292 C127.222584,10.6712575 128.328722,11.7773951 128.86975,13.1766458 C129.172894,13.9860565 129.336616,14.8410041 129.353958,15.7051458 C129.404708,16.81625 129.416667,17.1710208 129.416667,20 C129.416667,22.8289792 129.404708,23.18375 129.353979,24.2948333 L129.353979,24.2947917 Z" id="Shape" fill="#07A1C8" fill-rule="nonzero"></path>
            <path d="M169.03125,19.89375 C169.03125,19.89375 169.010417,19.89375 169,19.89375 L168.96875,19.89375 C166.4875,19.89375 164.302083,19.2625 163.008333,20.4520833 C162.235417,21.1645833 161.910417,22.0229167 161.910417,22.9458333 C161.910417,26.8041667 165,27.2791667 168.970833,27.2791667 L169.03125,27.2791667 C173,27.2791667 176.091667,26.8020833 176.091667,22.9458333 C176.091667,22.0229167 175.766667,21.1625 174.99375,20.4520833 C173.697917,19.2625 171.5125,19.89375 169.03125,19.89375 Z M165.652083,25.1666667 C164.895833,25.1666667 164.285417,24.3166667 164.285417,23.2708333 C164.285417,22.225 164.895833,21.3791667 165.652083,21.3791667 C166.408333,21.3791667 167.020839,22.225 167.020839,23.2708333 C167.022917,24.3166667 166.410417,25.1666667 165.652083,25.1666667 Z M172.345833,25.1666667 C171.589583,25.1666667 170.977083,24.3166667 170.977083,23.2708333 C170.977083,22.225 171.589583,21.3791667 172.345833,21.3791667 C173.1,21.3791667 173.712505,22.225 173.712505,23.2708333 C173.714583,24.3166667 173.102083,25.1666667 172.345833,25.1666667 Z M169,0 C157.954167,0 149,8.95416667 149,20 C149,31.0458333 157.954167,40 169,40 C180.045833,40 189,31.0458333 189,20 C189,8.95416667 180.045833,0 169,0 Z M170.825,28.20625 C170.466667,28.20625 169.754167,28.20625 169,28.2104167 C168.245833,28.20625 167.533333,28.20625 167.175,28.20625 C165.591667,28.20625 159.316667,28.0833333 159.316667,20.5208333 C159.316667,18.7833333 159.9125,17.5104167 160.889583,16.4479167 C160.735417,16.0645833 160.727083,13.88125 161.55625,11.7895833 C161.55625,11.7895833 163.464583,11.9979167 166.35,13.9791667 C166.952083,13.8104167 167.977083,13.725 169,13.725 C170.022917,13.725 171.045833,13.8104167 171.652083,13.9770833 C174.5375,11.9958333 176.445833,11.7875 176.445833,11.7875 C177.275,13.8791667 177.26875,16.0645833 177.1125,16.4458333 C178.089583,17.5083333 178.685417,18.78125 178.685417,20.51875 C178.683333,28.0854167 172.408333,28.20625 170.825,28.20625 Z" id="Shape" fill="#07A1C8" fill-rule="nonzero"></path>
            <path d="M89.1222268,20.4034768 C89.1222268,9.29026963 80.1132071,0.28125 69,0.28125 C57.8867928,0.28125 48.8777732,9.29026963 48.8777732,20.4034768 C48.8777732,30.447062 56.2361807,38.7716901 65.8559021,40.28125 L65.8559021,26.220058 L60.7467429,26.220058 L60.7467429,20.4034768 L65.8559021,20.4034768 L65.8559021,15.9702987 C65.8559021,10.9271656 68.860009,8.14149485 73.4563658,8.14149485 C75.6579026,8.14149485 77.9606791,8.53450709 77.9606791,8.53450709 L77.9606791,13.4864613 L75.4233136,13.4864613 C72.9236377,13.4864613 72.1440979,15.0375627 72.1440979,16.6288693 L72.1440979,20.4034768 L77.7248718,20.4034768 L76.832734,26.220058 L72.1440979,26.220058 L72.1440979,40.28125 C81.7638192,38.7716901 89.1222268,30.447062 89.1222268,20.4034768" id="Path" fill="#07A1C8" fill-rule="nonzero"></path>
            <path d="M19.5,1 C8.7303125,1 0,9.7303125 0,20.5 C0,31.2696875 8.7303125,40 19.5,40 C30.2696875,40 39,31.2696875 39,20.5 C39,9.7303125 30.2696875,1 19.5,1 Z M27.4320312,16.97375 C27.4401562,17.1403125 27.4421875,17.306875 27.4421875,17.469375 C27.4421875,22.5475 23.5807812,28.3995312 16.5160937,28.3995312 C14.3467188,28.3995312 12.3276563,27.7657812 10.6295313,26.6729687 C10.928125,26.7095312 11.2348438,26.72375 11.545625,26.72375 C13.3453125,26.72375 15.0007812,26.1123437 16.315,25.0804687 C14.6351562,25.0479687 13.2173437,23.9389062 12.7278125,22.4154688 C12.9614062,22.458125 13.2010937,22.4825 13.4489063,22.4825 C13.7982812,22.4825 14.1395312,22.4357812 14.4604688,22.3484375 C12.7034375,21.995 11.3790625,20.443125 11.3790625,18.5825 L11.3790625,18.5357812 C11.8970312,18.8221875 12.4901563,18.996875 13.1198437,19.0171875 C12.0879687,18.3265625 11.4115625,17.1525 11.4115625,15.8179687 C11.4115625,15.1151562 11.6004687,14.4529688 11.9315625,13.88625 C13.8267187,16.21 16.6542187,17.7375 19.8473437,17.9020312 C19.7803125,17.6196875 19.7478125,17.3271875 19.7478125,17.0245312 C19.7478125,14.9059375 21.46625,13.1834375 23.5889062,13.1834375 C24.691875,13.1834375 25.69125,13.650625 26.3920312,14.398125 C27.2675,14.2234375 28.088125,13.9065625 28.8295312,13.4657812 C28.543125,14.3615625 27.9357812,15.1151562 27.1415625,15.5925 C27.9195312,15.4970312 28.6589062,15.291875 29.3475,14.9851562 C28.8335937,15.755 28.1815625,16.4334375 27.4320312,16.97375 Z" id="Shape" fill="#07A1C8" fill-rule="nonzero"></path>
            <path d="M119,50.5 C124.17173,50.5 129.131647,52.5544218 132.788613,56.2113873 C136.445578,59.8683527 138.5,64.8282702 138.5,70 C138.5,75.3847763 136.317388,80.2597763 132.788582,83.7885822 C129.259776,87.3173882 124.384776,89.5 119,89.5 C113.615224,89.5 108.740224,87.3173882 105.211418,83.7885822 C101.682612,80.2597763 99.5,75.3847763 99.5,70 C99.5,64.6152237 101.682612,59.7402237 105.211418,56.2114178 C108.740224,52.6826118 113.615224,50.5 119,50.5 Z" id="Shape" stroke="#07A1C8" fill-rule="nonzero"></path>
            <path d="M169,50.5 C174.384844,50.5 179.259845,52.6825765 182.788634,56.2113659 C186.317424,59.7401553 188.5,64.6151562 188.5,70 C188.5,75.3848437 186.317424,80.2598447 182.788634,83.7886341 C179.259845,87.3174235 174.384844,89.5 169,89.5 C163.615156,89.5 158.740155,87.3174235 155.211366,83.7886341 C151.682576,80.2598447 149.5,75.3848438 149.5,70 C149.5,64.6151562 151.682576,59.7401553 155.211366,56.2113659 C158.740155,52.6825765 163.615156,50.5 169,50.5 L169,50.5 Z" id="Shape" stroke="#07A1C8" fill-rule="nonzero"></path>
            <path d="M68.5,51.5 C73.7467708,51.5 78.4967718,53.626613 81.9350794,57.0649206 C85.373387,60.5032282 87.5,65.2532292 87.5,70.5 C87.5,75.7467708 85.373387,80.4967718 81.9350794,83.9350794 C78.4967718,87.373387 73.7467708,89.5 68.5,89.5 C63.2532292,89.5 58.5032282,87.373387 55.0649206,83.9350794 C51.626613,80.4967718 49.5,75.7467708 49.5,70.5 C49.5,65.2532292 51.626613,60.5032282 55.0649206,57.0649206 C58.5032282,53.626613 63.2532292,51.5 68.5,51.5 Z" id="Path" stroke="#07A1C8"></path>
            <path d="M73.4292969,57.8602448 C75.617461,57.8602448 77.90625,58.2532571 77.90625,58.2532571 L77.90625,63.2052113 L75.384297,63.2052113 C72.8998047,63.2052113 72.125,64.7563127 72.125,66.3476193 L72.125,70.1222268 L77.671875,70.1222268 L76.7851562,75.938808 L72.125,75.938808 L72.1255437,89.6722105 C70.9508045,89.8874284 69.7388945,90 68.5,90 C67.6100142,90 66.7339539,89.9419067 65.8755955,89.8293995 L65.875,75.938808 L60.796875,75.938808 L60.796875,70.1222268 L65.875,70.1222268 L65.875,65.6890487 C65.875,60.6459156 68.8608594,57.8602448 73.4292969,57.8602448 Z M60.0879214,88.1409022 L60.2410898,88.2167134 C53.6001093,85.1870842 49,78.6169741 49,71 C49,70.8518278 49.0017408,70.7040517 49.0052034,70.5566901 C49.1670297,78.2640339 53.6361651,84.9045414 60.0879214,88.1409022 Z" id="Combined-Shape" fill="#07A1C8"></path>
            <path d="M19.5,51.5 C24.7467708,51.5 29.4967718,53.626613 32.9350794,57.0649206 C36.373387,60.5032282 38.5,65.2532292 38.5,70.5 C38.5,75.7467708 36.373387,80.4967718 32.9350794,83.9350794 C29.4967718,87.373387 24.7467708,89.5 19.5,89.5 C14.2532292,89.5 9.5032282,87.373387 6.06492058,83.9350794 C2.62661295,80.4967718 0.5,75.7467708 0.5,70.5 C0.5,65.2532292 2.62661295,60.5032282 6.06492058,57.0649206 C9.5032282,53.626613 14.2532292,51.5 19.5,51.5 Z" id="Shape" stroke="#07A1C8" fill-rule="nonzero"></path>
            <path d="M27.4320312,66.97375 C27.4401562,67.1403125 27.4421875,67.306875 27.4421875,67.469375 C27.4421875,72.5475 23.5807812,78.3995313 16.5160937,78.3995313 C14.3467187,78.3995313 12.3276562,77.7657813 10.6295312,76.6729688 C10.928125,76.7095313 11.2348437,76.72375 11.545625,76.72375 C13.3453125,76.72375 15.0007812,76.1123438 16.315,75.0804688 C14.6351562,75.0479688 13.2173437,73.9389063 12.7278125,72.4154688 C12.9614062,72.458125 13.2010937,72.4825 13.4489062,72.4825 C13.7982812,72.4825 14.1395312,72.4357813 14.4604687,72.3484375 C12.7034375,71.995 11.3790625,70.443125 11.3790625,68.5825 L11.3790625,68.5357813 C11.8970312,68.8221875 12.4901562,68.996875 13.1198437,69.0171875 C12.0879687,68.3265625 11.4115625,67.1525 11.4115625,65.8179688 C11.4115625,65.1151563 11.6004687,64.4529688 11.9315625,63.88625 C13.8267187,66.21 16.6542187,67.7375 19.8473437,67.9020313 C19.7803125,67.6196875 19.7478125,67.3271875 19.7478125,67.0245313 C19.7478125,64.9059375 21.46625,63.1834375 23.5889062,63.1834375 C24.691875,63.1834375 25.69125,63.650625 26.3920312,64.398125 C27.2675,64.2234375 28.088125,63.9065625 28.8295312,63.4657813 C28.543125,64.3615625 27.9357812,65.1151563 27.1415625,65.5925 C27.9195312,65.4970313 28.6589062,65.291875 29.3475,64.9851563 C28.8335937,65.755 28.1815625,66.4334375 27.4320312,66.97375 Z" id="Path" fill="#07A1C8" fill-rule="nonzero"></path>
            <g id="instagram" transform="translate(108.000000, 59.000000)" fill="#07A1C8" fill-rule="nonzero">
                <path d="M21.9338289,6.46471222 C21.9155523,5.55217523 21.7426711,4.64934378 21.4225367,3.79460889 C21.1463259,3.06061605 20.7133364,2.39570527 20.15376,1.84624 C19.6042947,1.28666358 18.9393839,0.85367407 18.2053911,0.577463333 C17.3506562,0.257328883 16.4478248,0.0844476719 15.5352878,0.0661711111 C14.3620033,0.0126866667 13.9874411,0 11,0 C8.01255889,0 7.63799667,0.0126866667 6.46471222,0.0661711111 C5.55217523,0.0844476719 4.64934378,0.257328883 3.79460889,0.577463333 C3.06061605,0.85367407 2.39570527,1.28666358 1.84624,1.84624 C1.28666358,2.39570527 0.85367407,3.06061605 0.577463333,3.79460889 C0.257328883,4.64934378 0.0844476719,5.55217523 0.0661711111,6.46471222 C0.0126866667,7.63799667 0,8.01255889 0,11 C0,13.9874411 0.0126866667,14.3620033 0.0661711111,15.5352878 C0.0844476719,16.4478248 0.257328883,17.3506562 0.577463333,18.2053911 C0.85367407,18.9393839 1.28666358,19.6042947 1.84624,20.15376 C2.39568526,20.7133609 3.06060179,21.1463541 3.79460889,21.4225367 C4.64934378,21.7426711 5.55217523,21.9155523 6.46471222,21.9338289 C7.63799667,21.9873989 8.01255889,22 11,22 C13.9874411,22 14.3620033,21.9873989 15.5352878,21.9338289 C16.4478248,21.9155523 17.3506562,21.7426711 18.2053911,21.4225367 C19.6829776,20.851073 20.8510608,19.6829899 21.4225244,18.2054033 C21.7426589,17.3506684 21.9155401,16.447837 21.9338167,15.5353 C21.9873133,14.3620033 22,13.9874411 22,11 C22,8.01255889 21.9873133,7.63799667 21.9338289,6.46471222 Z M19.9539144,15.4449533 C19.9456586,16.1424693 19.8175196,16.8333714 19.5750989,17.4874578 C19.2050794,18.4468141 18.446812,19.205086 17.4874578,19.5751111 C16.8333691,19.8175233 16.1424685,19.9456621 15.4449533,19.9539267 C14.2851744,20.0068 13.9373178,20.0179956 11,20.0179956 C8.06268222,20.0179956 7.71482556,20.0068 6.55504667,19.9539144 C5.85753222,19.9456537 5.16663164,19.8175192 4.51254222,19.5751111 C4.03473922,19.3988131 3.60253623,19.1176441 3.24772556,18.7522867 C2.88236214,18.3974737 2.60118885,17.9652663 2.42488889,17.4874578 C2.18246821,16.8333714 2.05432922,16.1424693 2.04607333,15.4449533 C1.9932,14.2850156 1.98200444,13.9371711 1.98200444,11 C1.98200444,8.06282889 1.9932,7.71498444 2.04608556,6.55504667 C2.05434626,5.85753222 2.18248083,5.16663164 2.42488889,4.51254222 C2.6011869,4.03473922 2.88235586,3.60253623 3.24771333,3.24772556 C3.60252629,2.88236214 4.0347337,2.60118885 4.51254222,2.42488889 C5.16663091,2.18247666 5.85753151,2.05433795 6.55504667,2.04607333 C7.71498444,1.9932 8.06282889,1.98200444 11,1.98200444 C13.9371711,1.98200444 14.2850156,1.9932 15.4449533,2.04608556 C16.1424685,2.05435017 16.8333691,2.18248889 17.4874578,2.42490111 C17.9652608,2.60119913 18.3974638,2.88236808 18.7522744,3.24772556 C19.1176363,3.60253499 19.3988095,4.03473807 19.5751111,4.51254222 C19.8175233,5.16663091 19.9456621,5.85753151 19.9539267,6.55504667 C20.0068122,7.71493556 20.0180078,8.06290222 20.0180078,11 C20.0180078,13.9370978 20.0068,14.2850156 19.9539144,15.4449533 L19.9539144,15.4449533 Z M11,5.35132889 C7.88032509,5.35132889 5.35132889,7.88032509 5.35132889,11 C5.35132889,14.1196749 7.88032509,16.6486711 11,16.6486711 C14.1196749,16.6486711 16.6486711,14.1196749 16.6486711,11 C16.6486711,7.88033907 14.1196609,5.35132889 11,5.35132889 Z M11,14.6666667 C8.97495592,14.6666667 7.33333333,13.0250441 7.33333333,11 C7.33333333,8.97495592 8.97495592,7.33333333 11,7.33333333 C13.0250441,7.33333333 14.6666667,8.97495592 14.6666667,11 C14.6666667,11.9724605 14.2803583,12.9050915 13.5927249,13.5927249 C12.9050915,14.2803583 11.9724605,14.6666667 11,14.6666667 Z M18.1918244,5.1282 C18.1918244,5.85721587 17.6008403,6.4482 16.8718244,6.4482 C16.1428086,6.4482 15.5518244,5.85721587 15.5518244,5.1282 C15.5518244,4.39918413 16.1428086,3.8082 16.8718244,3.8082 C17.6008403,3.8082 18.1918244,4.39918413 18.1918244,5.1282 L18.1918244,5.1282 Z" id="Shape"></path>
            </g>
            <g id="github" transform="translate(159.000000, 61.000000)" fill="#07A1C8" fill-rule="nonzero">
                <path d="M14.1293478,10.5103846 C13.3098913,10.5103846 12.6456522,11.4415385 12.6456522,12.5861538 C12.6456522,13.7330769 13.3098913,14.6642308 14.1293478,14.6642308 C14.9488043,14.6642308 15.6130435,13.7330769 15.6130435,12.5861538 C15.6119022,11.4415385 14.9488043,10.5103846 14.1293478,10.5103846 Z M19.2948913,5.10692308 C19.4649457,4.68576923 19.4717935,2.29269231 18.570163,0 C18.570163,0 16.5032609,0.229615385 13.376087,2.4 C12.719837,2.21538462 11.6093478,2.12538462 10.5011413,2.12538462 C9.39065217,2.12538462 8.28130435,2.21538462 7.62505435,2.4 C4.49673913,0.229615385 2.42983696,0 2.42983696,0 C1.52934783,2.29269231 1.53847826,4.68576923 1.70625,5.10692308 C0.647119565,6.27 0,7.66730769 0,9.57346154 C0,17.865 6.80559783,17.9976923 8.52211957,17.9976923 C8.91244565,17.9976923 9.68396739,18 10.5011413,18 C11.3171739,18 12.089837,17.9976923 12.4778804,17.9976923 C14.1966848,17.9976923 21,17.865 21,9.57346154 C21,7.66730769 20.3540217,6.27 19.2948913,5.10692308 Z M10.5319565,16.9788462 L10.4680435,16.9788462 C6.16418478,16.9788462 2.81103261,16.4607692 2.81103261,12.2307692 C2.81103261,11.2165385 3.16483696,10.2773077 4.00597826,9.49730769 C5.4063587,8.19692308 7.77798913,8.88461538 10.4680435,8.88461538 C10.4794565,8.88461538 10.4908696,8.88461538 10.5011413,8.88461538 C10.5125543,8.88461538 10.5216848,8.88461538 10.5319565,8.88461538 C13.2220109,8.88461538 15.5947826,8.19692308 16.9963043,9.49730769 C17.835163,10.2773077 18.1889674,11.2165385 18.1889674,12.2307692 C18.1889674,16.4607692 14.8369565,16.9788462 10.5319565,16.9788462 Z M6.87179348,10.5103846 C6.05233696,10.5103846 5.38809783,11.4415385 5.38809783,12.5861538 C5.38809783,13.7330769 6.05233696,14.6642308 6.87179348,14.6642308 C7.6923913,14.6642308 8.35663043,13.7330769 8.35663043,12.5861538 C8.35663043,11.4415385 7.6923913,10.5103846 6.87179348,10.5103846 Z" id="Shape"></path>
            </g>
        </g>
    </g>
</svg>