<?xml version="1.0" encoding="UTF-8"?>
<svg width="80px" height="80px" viewBox="0 0 80 80" version="1.1" xmlns="http://www.w3.org/2000/svg" xmlns:xlink="http://www.w3.org/1999/xlink">
    <title>Group</title>
    <defs>
        <linearGradient x1="1.70002901e-14%" y1="-2.42861287e-15%" x2="100%" y2="100%" id="linearGradient-1">
            <stop stop-color="#FFFFFF" offset="0%"></stop>
            <stop stop-color="#000000" offset="100%"></stop>
        </linearGradient>
        <circle id="path-2" cx="40" cy="40" r="40"></circle>
        <linearGradient x1="16.3371899%" y1="-2.5286949e-14%" x2="83.6628101%" y2="100%" id="linearGradient-3">
            <stop stop-color="#FFFFFF" stop-opacity="0.5" offset="0%"></stop>
            <stop stop-color="#000000" stop-opacity="0.5" offset="100%"></stop>
        </linearGradient>
        <path d="M36.9129149,21.9474859 C36.9129149,22.363726 36.9590556,22.7338163 37.0978031,23.1500894 C37.2365498,23.6589347 37.3752965,24.1216549 37.5140432,24.6304837 C37.6989314,25.3706725 37.1439446,26.064373 36.4037888,26.064373 L29.1419106,26.064373 C27.7541133,26.064373 26.5976843,27.1746274 26.5976843,28.6085993 L26.5976843,35.8246333 C26.5976843,36.5648221 25.9039591,37.1198337 25.209887,36.9348876 C24.7010418,36.8422825 24.2383215,36.7035358 23.7294928,36.5186476 C23.0819091,36.2872957 22.2956035,36.2411542 21.5092318,36.4725069 C20.1679394,36.7964639 19.1501993,37.8603042 18.8263166,39.2015966 C18.2248745,41.7458229 20.0753425,43.9660838 22.5269719,43.9660838 C22.9432119,43.9660838 23.3594355,43.9199431 23.7295754,43.7811956 C24.2384206,43.6424489 24.7011409,43.5037022 25.2099696,43.3649555 C25.9501585,43.1800673 26.6438589,43.7350541 26.6438589,44.4752099 L26.6438589,51.6906657 C26.6438589,53.0784631 27.7541133,54.234892 29.1880852,54.234892 L36.4041192,54.234892 C37.1443081,54.234892 37.6993196,54.9286172 37.5143736,55.6226893 C37.4217684,56.1315346 37.2830217,56.5942549 37.0981335,57.1030836 C36.8667816,57.7506673 36.8206401,58.5369729 37.0519928,59.3233446 C37.3759499,60.6646369 38.4397901,61.682377 39.7810825,62.0062597 C42.3253088,62.6538434 44.5455698,60.7572339 44.5455698,58.3056045 C44.5455698,57.8893644 44.4994291,57.5192741 44.3606816,57.103001 C44.2219349,56.5941557 44.0831882,56.1314355 43.9444415,55.6226067 C43.7595533,54.8824179 44.31454,54.1887175 45.0546959,54.1887175 L52.2707299,54.1887175 C53.6585272,54.1887175 54.8149562,53.0784631 54.8149562,51.6444912 L54.8143109,44.5207237 C54.8143109,43.7805348 54.1205857,43.2255233 53.3804216,43.4104693 C52.9177178,43.5030745 52.501453,43.6418212 52.0852212,43.7805679 C51.7151226,43.9193145 51.2988908,43.9654561 50.8826177,43.9654561 C48.4771629,43.9654561 46.5808672,41.6987727 47.1819624,39.2009688 C47.5059195,37.8596764 48.5232548,36.8419364 49.8648776,36.4718791 C50.651208,36.2869909 51.3913638,36.3331324 52.0851386,36.5180198 C52.5013786,36.6567665 52.9641072,36.7955132 53.380339,36.8881184 C54.1205278,37.0730066 54.7681363,36.5180198 54.7681363,35.777864 L54.7681363,28.5621604 C54.7681363,27.174363 53.6578819,26.0179341 52.22391,26.0179341 L45.053968,26.0179341 C44.3137791,26.0179341 43.7587676,25.3242089 43.9437136,24.6301368 C44.0363188,24.1212915 44.1750655,23.6585712 44.3599537,23.1497425 C44.5913055,22.5021588 44.637447,21.7158532 44.4060944,20.9294815 C44.0821373,19.5881892 43.018297,18.5704491 41.6770046,18.2465664 C39.1796137,17.6454464 36.9128478,19.5420972 36.9128478,21.947552 L36.9129149,21.9474859 Z" id="path-4"></path>
    </defs>
    <g id="Page-1" stroke="none" stroke-width="1" fill="none" fill-rule="evenodd">
        <g id="Group">
            <g id="Oval">
                <use fill="#EB3B5A" xlink:href="#path-2"></use>
                <use fill="url(#linearGradient-1)" style="mix-blend-mode: overlay;" xlink:href="#path-2"></use>
                <use fill-opacity="0.859183785" fill="#FFFFFF" xlink:href="#path-2"></use>
            </g>
            <g id="Path" fill-rule="nonzero">
                <use fill="#EB3B5A" xlink:href="#path-4"></use>
                <use fill-opacity="0.5" fill="url(#linearGradient-3)" style="mix-blend-mode: overlay;" xlink:href="#path-4"></use>
            </g>
        </g>
    </g>
</svg>