<?xml version="1.0" encoding="UTF-8"?>
<svg width="80px" height="80px" viewBox="0 0 80 80" version="1.1" xmlns="http://www.w3.org/2000/svg" xmlns:xlink="http://www.w3.org/1999/xlink">
    <title>Group</title>
    <defs>
        <linearGradient x1="1.70002901e-14%" y1="-2.42861287e-15%" x2="100%" y2="100%" id="linearGradient-1">
            <stop stop-color="#FFFFFF" offset="0%"></stop>
            <stop stop-color="#000000" offset="100%"></stop>
        </linearGradient>
        <circle id="path-2" cx="40" cy="40" r="40"></circle>
    </defs>
    <g id="Page-1" stroke="none" stroke-width="1" fill="none" fill-rule="evenodd">
        <g id="Group">
            <g id="Oval">
                <use fill="#FF9F43" xlink:href="#path-2"></use>
                <use fill="url(#linearGradient-1)" style="mix-blend-mode: overlay;" xlink:href="#path-2"></use>
                <use fill-opacity="0.859183785" fill="#FFFFFF" xlink:href="#path-2"></use>
            </g>
            <path d="M40.4688358,22 C41.6319098,22 42.7155361,22.5715717 43.373322,23.519693 L43.491582,23.7018308 L58.4638977,48.6969366 C59.0920604,49.784771 59.0958109,51.1242316 58.4737499,52.2155667 C57.8882808,53.2427056 56.8312236,53.9048515 55.6616729,53.9907071 L55.4411516,54 L25.49652,54 C24.2404223,53.986194 23.0859826,53.3069017 22.4639217,52.2155667 C21.8784525,51.1884278 21.8473354,49.941496 22.3694037,48.8914177 L22.4737738,48.6969366 L37.4460896,23.7018308 C38.0869925,22.6452508 39.2330697,22 40.4688358,22 Z M40.4865127,44.9292487 L40.3195734,44.9347345 C39.2847136,45.0110836 38.4688358,45.8748869 38.4688358,46.9292487 C38.4688358,48.0338182 39.3642663,48.9292487 40.4688358,48.9292487 L40.4688358,48.9292487 L40.635775,48.923763 C41.6706349,48.8474139 42.4865127,47.9836105 42.4865127,46.9292487 C42.4865127,45.8246792 41.5910822,44.9292487 40.4865127,44.9292487 L40.4865127,44.9292487 Z M40.4688358,30.7877462 C39.414474,30.7877462 38.5506707,31.603624 38.4743215,32.6384839 L38.4688358,32.7877462 L38.4688358,39.8584975 L38.4743215,40.0077598 C38.5506707,41.0426197 39.414474,41.8584975 40.4688358,41.8584975 C41.5231976,41.8584975 42.3870009,41.0426197 42.4633501,40.0077598 L42.4688358,39.8584975 L42.4688358,32.7877462 L42.4633501,32.6384839 C42.3870009,31.603624 41.5231976,30.7877462 40.4688358,30.7877462 Z" id="Combined-Shape" fill="#FF9F43"></path>
        </g>
    </g>
</svg>